<svg xmlns="http://www.w3.org/2000/svg" width="339.137" height="339.137" style="enable-background:new 0 0 339.137 339.137" xml:space="preserve"><path d="M253.552 171.218c3.193-.827 5.809-4.206 5.809-7.505V35.902c0-3.3-1.502-3.756-3.337-1.014L149.46 194.096c-1.835 2.742-.724 4.31 2.47 3.479l101.622-26.357zM66.532 306.042c-3.3 0-4.313-2.107-2.251-4.686l67.972-84.935c2.062-2.576 6.373-5.319 9.581-6.098l193.599-46.882c3.208-.776 4.602.991 3.099 3.929l-68.245 133.328c-1.503 2.938-5.435 5.341-8.733 5.341l-195.022.003zM56.92 147.687c-3.3 0-6.01 2.7-6.021 6l-.52 145.033c-.012 3.301 1.672 3.897 3.741 1.327l72.128-89.58c2.069-2.569 3.033-7.272 2.141-10.449l-13.066-46.554c-.892-3.177-4.322-5.776-7.622-5.776H56.92v-.001zM86.309 41.614c-.892-3.177-3.365-3.715-5.496-1.195l-79.677 94.21c-2.131 2.52-1.174 4.581 2.125 4.581h104.441c3.3 0 5.271-2.6 4.378-5.776l-25.771-91.82z"/></svg>