<?xml version="1.0" encoding="UTF-8"?>
<svg xmlns="http://www.w3.org/2000/svg" xmlns:xlink="http://www.w3.org/1999/xlink" viewBox="0 0 50 50" width="50px" height="50px">
<g id="surface935024">
<path style="fill-rule:nonzero;fill:rgb(100%,100%,100%);fill-opacity:1;stroke-width:3;stroke-linecap:butt;stroke-linejoin:round;stroke:rgb(10.980392%,10.980392%,10.980392%);stroke-opacity:1;stroke-miterlimit:10;" d="M 171.997269 25.797813 L 171.997269 42.994533 L 0.00273397 42.994533 L 0.00273397 25.797813 Z M 171.997269 77.401642 L 171.997269 94.598361 L 0.00273397 94.598361 L 0.00273397 77.401642 Z M 171.997269 129.005471 L 171.997269 146.20219 L 0.00273397 146.20219 L 0.00273397 129.005471 Z M 171.997269 129.005471 " transform="matrix(0.285756,0,0,0.285756,0.425,0.425)"/>
<path style=" stroke:none;fill-rule:nonzero;fill:rgb(100%,100%,100%);fill-opacity:1;" d="M 0.425781 7.796875 L 0.425781 12.710938 L 49.574219 12.710938 L 49.574219 7.796875 Z M 0.425781 22.542969 L 0.425781 27.457031 L 49.574219 27.457031 L 49.574219 22.542969 Z M 0.425781 37.289062 L 0.425781 42.203125 L 49.574219 42.203125 L 49.574219 37.289062 Z M 0.425781 37.289062 "/>
</g>
</svg>
