<svg width="123" height="50" viewBox="0 0 123 50" fill="none" xmlns="http://www.w3.org/2000/svg">
<path fill-rule="evenodd" clip-rule="evenodd" d="M71.2052 50C72.2021 37.0905 76.1444 39.6661 87.1783 32.7761C90.5872 39.8724 104.439 40.3904 107.279 32.7761C116.801 38.8531 123.064 36.5197 123 50H71.2052ZM78.6164 14.6816H70.6094V18.5571C70.5782 19.255 70.3475 19.749 69.9127 20.0368C68.7476 20.8138 67.5392 19.809 66.7873 19.0176L60.0848 11.6983C59.2223 10.9188 59.2223 9.80848 60.0848 9.02906L67.0059 1.51069C67.7074 0.750454 68.8365 -0.0265641 69.9127 0.690499C70.3475 0.975886 70.5782 1.46992 70.6094 2.16779V6.04569H78.6164V14.6816ZM44.3831 29.5889H52.3901V33.4644C52.4213 34.1622 52.652 34.6563 53.0868 34.9441C54.2519 35.7211 55.4579 34.7162 56.2122 33.9248L62.9147 26.6055C63.7772 25.8261 63.7772 24.7157 62.9147 23.9363L55.9936 16.4179C55.2921 15.6577 54.163 14.8807 53.0868 15.5953C52.652 15.8831 52.4213 16.3772 52.3901 17.075V20.9529H44.3831V29.5889V29.5889ZM18.5772 32.2149C18.4283 32.0255 18.9616 30.716 19.0865 30.505C17.6451 29.2243 16.5064 27.9317 16.2638 25.2745L16.1077 25.2769C15.7521 25.2721 15.4062 25.1906 15.0843 25.0059C14.5678 24.7133 14.205 24.2097 13.96 23.6437C13.4411 22.4518 11.7306 18.4996 14.3371 18.8137C12.8789 16.0966 16.1773 11.4584 10.491 9.74133C15.1563 3.84414 24.9987 -5.25225 32.2129 3.87052C40.1094 4.63555 42.5718 14.0029 37.2554 19.1327C37.5653 19.1447 37.8608 19.2166 38.1202 19.3557C39.1076 19.8833 39.1412 21.0297 38.8818 21.9938C38.6247 22.7972 38.298 23.3415 37.9905 24.1234C37.6157 25.181 37.068 25.38 36.011 25.2649C35.9581 27.8813 34.745 29.1644 33.1162 30.7016L33.563 32.2101C31.3769 36.8386 22.2985 37.0233 18.5772 32.2149V32.2149ZM0 50C0.999371 37.0905 4.9392 39.6661 15.9755 32.7761C19.3844 39.8724 33.2339 40.3904 36.0759 32.7761C45.5987 38.8531 51.8592 36.5197 51.7943 50H0ZM89.78 32.2149C89.6335 32.0255 90.1644 30.716 90.2917 30.505C88.8503 29.2243 87.7092 27.9317 87.4666 25.2745L87.3128 25.2769C86.9549 25.2721 86.6114 25.1906 86.2894 25.0059C85.7729 24.7133 85.4102 24.2097 85.1651 23.6437C84.6462 22.4518 82.9358 18.4996 85.5399 18.8137C84.0841 16.0966 87.3801 11.4584 81.6938 9.74133C86.3591 3.84414 96.2039 -5.25225 103.418 3.87052C111.312 4.63555 113.777 14.0029 108.461 19.1327C108.77 19.1447 109.064 19.2166 109.325 19.3557C110.313 19.8833 110.344 21.0297 110.085 21.9938C109.828 22.7972 109.501 23.3415 109.193 24.1234C108.819 25.181 108.273 25.38 107.216 25.2649C107.161 27.8813 105.95 29.1644 104.321 30.7016L104.766 32.2101C102.582 36.8386 93.5012 37.0233 89.78 32.2149V32.2149Z" fill="#91D1DD"/>
</svg>
